<?xml version="1.0" encoding="utf-8"?>
<!-- Generator: Adobe Illustrator 16.0.4, SVG Export Plug-In . SVG Version: 6.00 Build 0)  -->
<!DOCTYPE svg PUBLIC "-//W3C//DTD SVG 1.1//EN" "http://www.w3.org/Graphics/SVG/1.1/DTD/svg11.dtd">
<svg version="1.1" id="Capa_1" xmlns="http://www.w3.org/2000/svg" xmlns:xlink="http://www.w3.org/1999/xlink" x="0px" y="0px"
	 width="612px" height="792px" viewBox="0 0 612 792" enable-background="new 0 0 612 792" xml:space="preserve">
<g>
	<path fill="#7E7E7E" d="M366.184,221.402l10.521-22.064c8.686-18.229,23.068-32.552,40.779-41.098h-77.098
		c6.475,11.724,5.757,24.733-5.28,37.603C350.786,195.842,363.416,207.027,366.184,221.402z"/>
	<path fill="#7E7E7E" d="M579.349,158.24h-72.815c27.473,21.844,24.385,51.409,2.332,60.602l-10.897,4.542
		c56.139,0,55.762-5.18,55.762,29.534c7.47,15.499,6.913,33.249,0,48.362v184.923c0,7.889-6.396,14.285-14.284,14.285H72.556
		c-7.888,0-14.284-6.396-14.284-14.285V285.709c-8.068-11.854-5.419-23.13-5.419-58.262c0-17.333,14.025-31.605,31.656-31.605
		c-9.623-9.612-12.45-24.503-5.239-37.603H32.651C14.623,158.24,0,172.861,0,190.891v345.364c0,18.029,14.623,32.652,32.652,32.652
		h216.411l-29.145,70.126h-13.369c-11.613,0-21.036,9.422-21.036,21.038c0,11.614,9.423,21.036,21.036,21.036h198.9
		c11.616,0,21.039-9.422,21.039-21.036c0-11.616-9.423-21.038-21.039-21.038h-13.366l-29.145-70.126h216.41
		c18.028,0,32.65-14.623,32.65-32.652V190.891C612,172.861,597.377,158.24,579.349,158.24z M473.743,547.781
		c-8.448,0-15.301-6.854-15.301-15.3c0-8.448,6.853-15.301,15.301-15.301c8.447,0,15.3,6.853,15.3,15.301
		C489.043,540.928,482.19,547.781,473.743,547.781z M523.467,547.781c-8.447,0-15.3-6.854-15.3-15.3
		c0-8.448,6.853-15.301,15.3-15.301c8.448,0,15.301,6.853,15.301,15.301C538.768,540.928,531.916,547.781,523.467,547.781z"/>
	<path fill="#7E7E7E" d="M115.189,197.655c-3.127,5.897-5.737,12.103-7.729,18.587c-15.062,0-34.205-3.477-34.205,11.206
		c0,56.698-5.776,51.787,34.184,51.787c2.014,6.485,4.622,12.702,7.75,18.596c-23.766,23.758-26.875,21.557-6.653,41.767
		c12.65-13.687,24.523-16.118,61.716-31.616c-19.602-12.919-32.59-35.062-32.59-60.234c0-39.794,32.373-72.167,72.156-72.167
		c44.843,0,79.769,40.95,70.742,86.43l65.841-27.453c0-21.286-5.718-18.318-34.207-18.318c-1.991-6.485-4.621-12.7-7.749-18.597
		c10.638-10.647,26.675-21.765,16.296-32.145c-40.323-40.331-32.553-40.661-60.842-12.382c-5.897-3.127-12.093-5.747-18.606-7.729
		c0-15.031,3.466-34.206-11.177-34.206c-56.698,0-51.777-5.797-51.777,34.206c-6.494,1.982-12.709,4.602-18.606,7.729
		C149.095,142.47,138,126.462,127.6,136.821C87.539,176.867,86.861,169.345,115.189,197.655z"/>
	<path fill="#7E7E7E" d="M209.818,195.981c-28.547,0-51.756,23.218-51.756,51.767c0,23.646,16.016,43.428,37.711,49.596
		l59.129-24.644C274.604,237.189,248.188,195.981,209.818,195.981z"/>
	<path fill="#7E7E7E" d="M378.336,243.355L136.785,344.031c-46.578,19.414-17.85,90.902,29.663,71.142l241.573-100.666
		c62.954,22.055,65.543,24.812,113.019-5.289c26.077-16.545,20.1-57.932,4.103-51.319l-42.313,17.621
		c-7.391,3.087-15.938-0.4-19.045-7.86c-21.437-51.398-24.683-41.846,37.234-67.644c15.52-6.464-8.925-40.223-39.347-33.2
		l-20.997,4.792C403.299,180.143,394.872,208.602,378.336,243.355z"/>
</g>
</svg>
